<svg xmlns="http://www.w3.org/2000/svg" viewBox="0 0 998.46698 1210.61818"><defs><style>.a{fill:#f06e40;}.b{fill:#dd4738;}.c{fill:#673d94;}.d{fill:#74509d;}.e{fill:#40b6e6;}.f{fill:#ffd769;}.g{fill:#ec5f6b;}</style></defs><title>logo</title><polygon class="a" points="920.217 551.691 978.482 838.918 499.232 1210.618 19.992 838.918 80.592 540.151 920.217 551.691"/><polygon class="b" points="283.421 552.792 499.234 1210.618 499.232 1210.618 715.046 552.792 283.421 552.792"/><path class="c" d="M998.467,571.24015v46.16554c0,59.6839-223.51445,108.06726-499.23349,108.06726S0,677.08959,0,617.40569V571.24015Z"/><ellipse class="d" cx="499.23349" cy="571.24015" rx="499.23349" ry="108.06726"/><polygon class="b" points="341.303 484.839 40.253 233.262 189.495 557.324 341.303 484.839"/><polygon class="a" points="251.202 521.398 167.102 557.558 86.722 542.425 40.249 233.266 251.202 521.398"/><polygon class="b" points="657.165 484.839 958.215 233.262 808.973 557.324 657.165 484.839"/><polygon class="a" points="747.266 521.398 831.366 557.558 911.747 542.425 958.219 233.266 747.266 521.398"/><path class="c" d="M862.79517,78.69888V556.24015c0,43.46419-162.77211,78.69888-363.56168,78.69888s-363.56168-35.23469-363.56168-78.69888V78.69888"/><ellipse class="d" cx="499.23349" cy="78.69888" rx="363.56168" ry="78.69888"/><circle class="e" cx="759.67829" cy="840.5774" r="90.44759"/><path class="f" d="M759.67852,944.02524A103.44775,103.44775,0,1,1,863.12578,840.577,103.56484,103.56484,0,0,1,759.67852,944.02524Zm0-180.8955A77.44775,77.44775,0,1,0,837.12578,840.577,77.53578,77.53578,0,0,0,759.67852,763.12974Z"/><path class="g" d="M865.16385,988.13506c-.22652.00456-.45316.00327-.68284-.00382a12.9993,12.9993,0,0,1-12.58318-13.40347c.0083-.26682.01966-.52687.03318-.77719a12.9999,12.9999,0,1,1,25.96287,1.38533l-.0094.21215A13.00065,13.00065,0,0,1,865.16385,988.13506Z"/><path class="g" d="M772.31239,1137.42791a13.00033,13.00033,0,0,1-1.52388-25.9355l.85972-.08863a13.0002,13.0002,0,1,1,2.77733,25.85163l-1.08588.11077C772.99557,1137.40047,772.65217,1137.42106,772.31239,1137.42791Zm-38.78689-2.94268a13.02253,13.02253,0,0,1-3.31559-.362q-.54621-.13112-1.08863-.26816a12.99983,12.99983,0,0,1,6.36837-25.20766l.80985.19955a13.00161,13.00161,0,0,1-2.774,25.63825Zm77.07106-8.20307a13.0021,13.0021,0,0,1-6.09987-24.62037l.79288-.39985a12.99983,12.99983,0,0,1,11.81671,23.15918l-.95144.48118A12.95032,12.95032,0,0,1,810.59656,1126.28216Zm32.03745-23.666a13,13,0,0,1-9.97124-21.63844l.5548-.63044a13.00026,13.00026,0,1,1,19.6078,17.07517q-.3666.42055-.73816.83731A12.96289,12.96289,0,0,1,842.634,1102.61618Zm19.08148-34.872a13.01054,13.01054,0,0,1-12.725-16.70987l.24869-.84308a12.99973,12.99973,0,1,1,24.9749,7.22675l-.30345,1.03366A13.00668,13.00668,0,0,1,861.71549,1067.74414Zm5.44263-39.59036c-.11912.0024-.2373.00283-.35745.00232a12.99957,12.99957,0,0,1-12.91088-13.08821l.00548-.93975a12.99985,12.99985,0,1,1,25.99951.10113l-.0059,1.01595A13.0008,13.0008,0,0,1,867.15812,1028.15378Z"/><path class="g" d="M696.07386,1120.25163a13.06152,13.06152,0,1,1,.55637-26.04482,15.37764,15.37764,0,0,1,2.964.60739,13.00221,13.00221,0,0,1-3.52039,25.43743Zm-4.05029-.565.00885.00275Z"/></svg>